<svg xmlns:dc="http://purl.org/dc/elements/1.1/" xmlns:cc="http://creativecommons.org/ns#" xmlns:rdf="http://www.w3.org/1999/02/22-rdf-syntax-ns#" xmlns:svg="http://www.w3.org/2000/svg" xmlns="http://www.w3.org/2000/svg" xmlns:sodipodi="http://sodipodi.sourceforge.net/DTD/sodipodi-0.dtd" xmlns:inkscape="http://www.inkscape.org/namespaces/inkscape" version="1.1" id="svg8" x="0px" y="0px" viewBox="0 0 3340 3340" style="enable-background:new 0 0 3340 3340;" xml:space="preserve" sodipodi:docname="hacktj-remastered-trans.svg" inkscape:version="1.0.1 (3bc2e813f5, 2020-09-07)"><metadata id="metadata104"><rdf:RDF><cc:Work rdf:about=""><dc:format>image/svg+xml</dc:format><dc:type rdf:resource="http://purl.org/dc/dcmitype/StillImage"/><dc:title/></cc:Work></rdf:RDF></metadata>
<style type="text/css" id="style58">
	.st0{fill-rule:evenodd;clip-rule:evenodd;fill:#45C2C5;}
	.st1{fill:none;stroke:#FFFFFF;stroke-width:30;stroke-linecap:square;stroke-miterlimit:15.1181;}
	.st2{fill:none;stroke:#FFFFF9;stroke-width:30;stroke-miterlimit:15.1181;}
	.st3{fill:none;stroke:#333333;stroke-width:30;stroke-linecap:square;stroke-miterlimit:15.1181;}
	.st4{fill:url(#path1277_1_);}
	.st5{fill-rule:evenodd;clip-rule:evenodd;fill:#333333;}
	.st6{fill:#FFFFFF;}
</style>
<defs id="defs72">
	
		<inkscape:path-effect center_point="758.64211,537.27304" discard_orig_path="false" effect="mirror_symmetry" end_point="758.64211,622.58471" fuse_paths="false" id="path-effect1714" is_visible="true" lpeversion="1" mode="vertical" oposite_fuse="false" split_items="true" start_point="758.64211,451.96137">
		</inkscape:path-effect>
	
		<inkscape:path-effect center_point="758.64211,537.27304" discard_orig_path="false" effect="mirror_symmetry" end_point="758.64211,622.58471" fuse_paths="false" id="path-effect1689" is_visible="true" lpeversion="1" mode="vertical" oposite_fuse="false" split_items="false" start_point="758.64211,451.96137">
		</inkscape:path-effect>
	
		<inkscape:path-effect center_point="758.64211,537.27304" discard_orig_path="false" effect="mirror_symmetry" end_point="758.64211,622.58471" fuse_paths="false" id="path-effect1687" is_visible="true" lpeversion="1" mode="free" oposite_fuse="false" split_items="false" start_point="758.64211,451.96137">
		</inkscape:path-effect>
	
		<inkscape:path-effect center_point="758.64211,537.27304" discard_orig_path="false" effect="mirror_symmetry" end_point="758.64211,622.58471" fuse_paths="false" id="path-effect1666" is_visible="true" lpeversion="1" mode="vertical" oposite_fuse="false" split_items="false" start_point="758.64211,451.96137">
		</inkscape:path-effect>
	
		<inkscape:path-effect center_point="758.64211,537.27304" discard_orig_path="false" effect="mirror_symmetry" end_point="758.64211,622.58471" fuse_paths="false" id="path-effect1664" is_visible="true" lpeversion="1" mode="free" oposite_fuse="false" split_items="false" start_point="758.64211,451.96137">
		</inkscape:path-effect>
	
		<inkscape:path-effect center_point="758.64211,537.27304" discard_orig_path="false" effect="mirror_symmetry" end_point="758.64211,622.58471" fuse_paths="false" id="path-effect1531" is_visible="true" lpeversion="1" mode="vertical" oposite_fuse="false" split_items="false" start_point="758.64211,451.96137">
		</inkscape:path-effect>
	
		<inkscape:path-effect center_point="758.64211,537.27304" discard_orig_path="false" effect="mirror_symmetry" end_point="758.64211,622.58471" fuse_paths="false" id="path-effect1529" is_visible="true" lpeversion="1" mode="free" oposite_fuse="false" split_items="false" start_point="758.64211,451.96137">
		</inkscape:path-effect>
	
		<inkscape:path-effect center_point="647.79774,838.52688" discard_orig_path="false" effect="mirror_symmetry" end_point="1089.6519,838.52688" fuse_paths="false" id="path-effect1283" is_visible="true" lpeversion="1" mode="vertical" oposite_fuse="false" split_items="false" start_point="205.94357,838.52688">
		</inkscape:path-effect>
	
		<inkscape:path-effect center_point="758.64211,537.27304" discard_orig_path="false" effect="mirror_symmetry" end_point="758.64211,622.58471" fuse_paths="false" id="path-effect1281" is_visible="true" lpeversion="1" mode="free" oposite_fuse="false" split_items="false" start_point="758.64211,451.96137">
		</inkscape:path-effect>
	
		<inkscape:path-effect center_point="726.99195,556.12747" discard_orig_path="false" effect="mirror_symmetry" end_point="796.44046,553.27072" fuse_paths="false" id="path-effect1279" is_visible="true" lpeversion="1" mode="free" oposite_fuse="false" split_items="false" start_point="657.54345,558.98421">
		</inkscape:path-effect>
	
		<inkscape:path-effect center_point="441.85417,441.85417" discard_orig_path="false" effect="mirror_symmetry" end_point="441.85417,883.70833" fuse_paths="false" id="path-effect1271" is_visible="true" lpeversion="1" mode="vertical" oposite_fuse="false" split_items="false" start_point="441.85417,0">
		</inkscape:path-effect>
	
		<inkscape:path-effect center_point="441.85416,431.77535" discard_orig_path="false" effect="mirror_symmetry" end_point="441.85416,589.73229" fuse_paths="false" id="path-effect1200" is_visible="true" lpeversion="1" mode="vertical" oposite_fuse="false" split_items="false" start_point="441.85416,273.81841">
		</inkscape:path-effect>
</defs>
<sodipodi:namedview bordercolor="#666666" borderopacity="1.0" id="base" inkscape:current-layer="layer3" inkscape:cx="1577.898" inkscape:cy="1710.7461" inkscape:document-rotation="0" inkscape:document-units="mm" inkscape:object-paths="true" inkscape:pagecheckerboard="true" inkscape:pageopacity="0.0" inkscape:pageshadow="2" inkscape:snap-bbox="true" inkscape:snap-bbox-edge-midpoints="true" inkscape:snap-intersection-paths="true" inkscape:snap-nodes="false" inkscape:snap-page="true" inkscape:snap-smooth-nodes="true" inkscape:window-height="1017" inkscape:window-maximized="1" inkscape:window-width="1920" inkscape:window-x="-8" inkscape:window-y="-8" inkscape:zoom="0.35" pagecolor="#ffffff" showgrid="false" showguides="true" units="px">
	</sodipodi:namedview>
<g id="layer2" inkscape:groupmode="layer" inkscape:label="background" style="display:inline" sodipodi:insensitive="true">
	<rect id="rect978" x="0" class="st0" width="3340" height="3340" y="0" style="fill:none"/>
</g>
<g id="layer3" inkscape:groupmode="layer" inkscape:label="tj-logo" sodipodi:insensitive="true">
	<ellipse id="path1193" class="st1" cx="1670" cy="1819.8" rx="568.90002" ry="539.5" style="&#10;    stroke: #333333;&#10;"/>
	<g id="g1269" inkscape:path-effect="#path-effect1271" style="stroke:#ffffff">
		
			<path id="path1198" inkscape:original-d="m 441.85416,578.1385 -126.0479,-304.32009 126.0479,64.93337 v 0 l -134.25957,35.66323 134.25957,215.31728" sodipodi:nodetypes="cccccc" class="st2" d="M 1670,2185.1 1193.6,1034.9 1670,1280.3 v 0 l -507.4,134.8 507.4,813.8 m 0,-43.8 476.4,-1150.2 -476.4,245.4 v 0 l 507.4,134.8 -507.4,813.8" style="stroke: #333333;"/>
		
			<path id="path1263" inkscape:original-d="M 434.691,340.65452 441.85416,624.212 V 338.75178" sodipodi:nodetypes="ccc" class="st2" d="M 1642.9,1287.5 1670,2359.2 V 1280.3 m 27.1,7.2 -27.1,1071.7 V 1280.3" style="stroke: #333333;"/>
	</g>
</g>
<g id="layer4" inkscape:groupmode="layer" inkscape:label="circle" sodipodi:insensitive="true">
	<circle id="path1196" class="st3" cx="1670" cy="1670" r="887.5"/>
</g>
<g id="layer6" inkscape:groupmode="layer" inkscape:label="banner-bg" sodipodi:insensitive="true">
	<linearGradient id="path1277_1_" gradientUnits="userSpaceOnUse" x1="208.965" y1="2139.4707" x2="3131.0349" y2="2139.4707">
		<stop offset="0" style="stop-color:#333333" id="stop84"/>
		<stop offset="0.5" style="stop-color:#000000" id="stop86"/>
		<stop offset="1" style="stop-color:#333333" id="stop88"/>
	</linearGradient>
	
		<path id="path1277" inkscape:connector-curvature="0" inkscape:original-d="M 726.91571,622.58471 V 451.96137 l 31.7264,31.19184 v 139.4315 z" inkscape:path-effect="#path-effect1281;#path-effect1283" sodipodi:nodetypes="ccccc" class="st4" d="   M2486.2,2019.6H3131l-117.9,119.9h-527V2019.6z M2486.2,2259.4H3131l-117.9-119.9h-527V2259.4z M853.8,2019.6H209l117.9,119.9h527   V2019.6z M853.8,2259.4H209l117.9-119.9h527V2259.4z"/>
</g>
<g id="layer5" inkscape:groupmode="layer" inkscape:label="banner-fg" sodipodi:insensitive="true">
	<path id="rect1274" inkscape:connector-curvature="0" class="st5" d="M622.8,1908.3h2094.3v477.9H622.8L622.8,1908.3z"/>
</g>
<g id="layer7" inkscape:groupmode="layer" inkscape:label="text" sodipodi:insensitive="true">
	<g id="text1772">
		<path id="path1644" inkscape:connector-curvature="0" class="st6" d="M1044.4,2305.4v-164.5H832.5v164.5h-12.3v-331.8h12.3v154.9    h211.9v-154.9h12.3v331.8H1044.4z"/>
		<path id="path1646" inkscape:connector-curvature="0" class="st6" d="M1113.9,2305.4l124.2-331.8h15l124.2,331.8h-13.4l-36.9-99.1    h-162.7l-36.9,99.1H1113.9z M1168.8,2193.9h153.6l-76.8-205.5L1168.8,2193.9z"/>
		<path id="path1648" inkscape:connector-curvature="0" class="st6" d="M1641.4,2203.7h12.3c-3.3,35.9-15.6,62.5-36.7,80    c-21.1,17.5-48.3,26.2-81.6,26.2c-36.5,0-65.6-13.4-87.5-40.3c-21.7-26.9-32.6-62-32.6-105.3v-49.7c0-43.3,10.9-78.4,32.6-105.3    c21.9-26.9,51-40.3,87.5-40.3c33.3,0,60.5,8.8,81.6,26.4c21.1,17.5,33.3,43.9,36.7,79.3h-12.3c-7-62.3-42.3-93.4-106-93.4    c-32.2,0-58.3,12.2-78.2,36.5c-19.7,24.3-29.6,56.4-29.6,96.4v50.1c0,40.3,9.9,72.5,29.6,96.8c19.9,24.3,46,36.5,78.2,36.5    c30.8,0,55.4-7.5,73.6-22.6C1627.3,2260,1638.1,2236.2,1641.4,2203.7L1641.4,2203.7z"/>
		<path id="path1650" inkscape:connector-curvature="0" class="st6" d="M1948.3,2305.4l-152.4-174.5l-53.1,49v125.6h-12.3v-331.8    h12.3v191.6l54.2-52.9l138.1-138.8h17.8l-147.7,148.6l159,183.2L1948.3,2305.4z"/>
		<path id="path1652" inkscape:connector-curvature="0" class="st6" d="M2096.2,1985.9v-12.3h253.8v12.3h-120.8v319.5H2217v-319.5    H2096.2z"/>
		<path id="path1654" inkscape:connector-curvature="0" class="st6" d="M2507.5,2204.6v-231.1h12.3v231.1c0,34-9.2,60.1-27.6,78.2    c-18.4,18.1-41.1,27.1-68.1,27.1c-29.3,0-52.6-7.8-70-23.5c-17.2-15.8-25.7-40-25.7-72.5h12.3c0,55.8,27.8,83.6,83.4,83.6    c22.8,0,42.4-7.8,58.8-23.5C2499.3,2258.5,2507.5,2235.3,2507.5,2204.6L2507.5,2204.6z"/>
	</g>
</g>
</svg>
